<svg width="44" height="43" viewBox="0 0 44 43" fill="none" xmlns="http://www.w3.org/2000/svg">
<path d="M16.4207 37.6563C20.0689 33.779 19.5657 28.3575 17.5556 24.9616C16.5561 23.2712 15.1028 22.1689 13.5648 21.0015C11.0875 19.1225 8.31612 17.0197 6.9063 12.0509C4.36065 16.136 0.914726 24.3598 2.89399 30.9858C4.02599 34.7776 6.79745 37.4686 11.1476 39.0111C10.709 38.1821 10.2998 37.3526 9.92032 36.5257L9.91802 36.521C9.49652 35.6008 9.11236 34.6826 8.76774 33.773L4.3704 31.3799C4.0491 31.2039 3.93137 30.8033 4.10911 30.4852C4.28662 30.1679 4.68874 30.0501 5.01113 30.2231C5.02449 30.1611 5.04683 30.1004 5.07936 30.042C5.25731 29.7241 5.66096 29.6064 5.9839 29.7813L7.75686 30.7465C7.61888 30.269 7.4913 29.7944 7.37664 29.3233L7.37467 29.3142C6.83074 27.0823 6.5458 24.9267 6.54339 22.9137C6.54185 22.5487 6.84092 22.2528 7.20811 22.2528C7.32408 22.2524 7.43293 22.2816 7.52798 22.3326C7.59117 22.034 7.85892 21.8097 8.17847 21.8099C8.54686 21.8087 8.84505 22.1034 8.84527 22.4669C8.84713 23.5547 8.93693 24.6877 9.10853 25.8536L10.1923 23.9305C10.3651 23.624 10.7489 23.5083 11.0653 23.6601L11.1627 23.4874C11.3415 23.1703 11.7469 23.0565 12.0694 23.2334C12.3894 23.4105 12.505 23.8111 12.3263 24.1303L9.69528 28.7951C10.0857 30.3482 10.6088 31.9443 11.2549 33.5596L12.6886 31.0162C12.8626 30.7092 13.2459 30.5931 13.5617 30.7456L13.6589 30.5732C13.8391 30.2549 14.2443 30.141 14.566 30.3192C14.8862 30.4963 15.0026 30.8982 14.8239 31.2153L12.2309 35.8125C12.9023 37.2526 13.6672 38.6994 14.5238 40.1408C14.6143 40.2927 14.6362 40.4698 14.5945 40.6338C15.5909 39.9721 16.9315 38.9577 17.0129 38.2421C17.0468 37.9378 16.2029 37.8879 16.4207 37.6563" fill="#4BBC38"/>
<path d="M7.7432 9.73601C8.81464 15.7359 11.6409 17.8819 14.3765 19.9571C15.9487 21.1489 17.5735 22.384 18.7053 24.2957C20.4518 27.2447 21.1742 31.5617 19.4958 35.3906C19.0091 36.5011 18.3215 37.5705 17.3957 38.5535L17.3791 38.57C17.1259 38.8204 16.7185 38.8298 16.4551 38.5876C16.4204 38.5556 16.3909 38.5219 16.3669 38.4862C16.1866 38.2378 16.203 37.8886 16.4208 37.6569C20.069 33.7796 19.5658 28.3582 17.5558 24.9622C16.5563 23.2719 15.103 22.1696 13.5649 21.0022C10.9709 19.0345 8.05432 16.8218 6.71623 11.33C4.19171 14.7972 -0.26783 24.093 1.92367 31.4295C3.17766 35.6294 6.4419 38.4792 11.6358 39.9131C11.0087 38.7841 10.4377 37.6531 9.92046 36.5263L9.91816 36.5217C9.49666 35.6014 9.1125 34.6832 8.76788 33.7737L4.37054 31.3805C4.04924 31.2045 3.93152 30.8039 4.10925 30.4858C4.28709 30.1676 4.69075 30.0502 5.01369 30.2247L8.114 31.913C7.83037 31.0401 7.58419 30.1766 7.37678 29.324L7.37481 29.3149C6.83088 27.083 6.54594 24.9274 6.54353 22.9143C6.542 22.5493 6.84107 22.2534 7.20825 22.2534C7.57664 22.2521 7.87494 22.5472 7.87505 22.9108C7.87735 24.304 8.02223 25.771 8.30137 27.2863L10.1925 23.9311C10.3714 23.6139 10.7767 23.5 11.0992 23.6772C11.4193 23.8541 11.5348 24.2549 11.3562 24.5742L8.72506 29.2391C9.17492 31.0284 9.80066 32.8754 10.5884 34.7429L12.6887 31.0168C12.869 30.6986 13.2741 30.5848 13.5958 30.7629C13.916 30.94 14.0324 31.3419 13.8537 31.659L11.2606 36.2562C11.9321 37.6962 12.697 39.1431 13.5535 40.5846C13.6877 40.8104 13.6749 41.0912 13.5195 41.3035C13.3646 41.5161 13.0986 41.6163 12.8396 41.563C6.26767 40.1728 2.16612 36.8886 0.645696 31.8033C-2.01581 22.8929 4.25972 11.7165 6.61591 9.38541C6.79146 9.21174 7.05067 9.149 7.28742 9.22235C7.52407 9.29581 7.6994 9.49484 7.7432 9.73601" fill="#2D6B2F"/>
<path d="M37.6794 20.1084C32.4613 18.9214 27.9674 22.0629 25.9997 25.4832C25.02 27.185 24.7817 28.9811 24.5287 30.8826C24.1227 33.945 23.6677 37.3706 20.0234 41.063C24.8721 41.2017 33.7934 40.0423 38.6037 35.0335C41.357 32.1676 42.3268 28.4475 41.5018 23.9491C40.9954 24.7392 40.4739 25.5046 39.9399 26.2434L39.9371 26.2476C39.3423 27.0687 38.7306 27.857 38.1068 28.6073L38.2104 33.5713C38.2173 33.9347 37.9253 34.2358 37.5582 34.2426C37.1916 34.2493 36.8874 33.9634 36.8775 33.6009C36.8168 33.6204 36.7522 33.6317 36.685 33.6327C36.3177 33.6395 36.013 33.3524 36.0044 32.9883L35.9628 30.9866C35.614 31.3435 35.2623 31.6901 34.9075 32.0238L34.9003 32.0301C33.2185 33.6122 31.4744 34.9341 29.7135 35.9426C29.3946 36.1264 28.9861 36.0182 28.8026 35.7035C28.7441 35.6045 28.7152 35.4966 28.7125 35.3894C28.4194 35.4849 28.0892 35.3673 27.9294 35.0937C27.744 34.7787 27.8533 34.3757 28.1712 34.1938C29.1227 33.6481 30.0695 33.0049 31.004 32.2748L28.7788 32.3076C28.4244 32.3129 28.1313 32.042 28.1058 31.695L27.9059 31.6977C27.5388 31.7031 27.2365 31.4129 27.2301 31.0481C27.2251 30.6854 27.5182 30.3859 27.8868 30.3793L33.2859 30.3013C34.4498 29.1904 35.5853 27.9441 36.6762 26.5829L33.7331 26.6261C33.3773 26.6308 33.0842 26.3603 33.0597 26.0132L32.8601 26.0163C32.4916 26.0209 32.1892 25.7309 32.1844 25.366C32.1792 25.0031 32.4729 24.7024 32.8397 24.6969L38.1606 24.6203C39.0854 23.3248 39.9693 21.946 40.8027 20.4914C40.8905 20.338 41.0344 20.2306 41.199 20.1843C40.1216 19.6614 38.5632 19.0198 37.8961 19.308C37.6127 19.4312 37.991 20.1792 37.6794 20.1084" fill="#4BBC38"/>
<path d="M17.578 41.5037C22.2941 37.5857 22.7594 34.0913 23.2082 30.7095C23.4653 28.7666 23.7339 26.7569 24.8416 24.8314C26.5495 21.8604 29.9673 19.083 34.158 18.6065C35.3734 18.4685 36.6534 18.5229 37.9768 18.8245L37.9994 18.8304C38.3453 18.9222 38.5573 19.2666 38.4769 19.6134C38.4662 19.6593 38.4514 19.7011 38.4322 19.7397C38.305 20.0185 37.9909 20.179 37.6792 20.1082C32.4611 18.9212 27.9673 22.0627 25.9996 25.483C25.0199 27.1848 24.7816 28.9809 24.5286 30.8824C24.1035 34.0889 23.625 37.6943 19.4866 41.5866C23.784 42.016 34.1506 41.1891 39.4767 35.6433C42.5261 32.4686 43.3885 28.247 42.0467 23.0797C41.3721 24.1817 40.6676 25.2366 39.9397 26.2432L39.937 26.2474C39.3421 27.0685 38.7304 27.8568 38.1067 28.6071L38.2103 33.5711C38.2172 33.9345 37.9252 34.2356 37.558 34.2424C37.1905 34.2491 36.8859 33.9619 36.8773 33.598L36.8048 30.0974C36.1827 30.7769 35.5499 31.4195 34.9074 32.0236L34.9001 32.0299C33.2184 33.612 31.4742 34.9339 29.7133 35.9424C29.3944 36.1262 28.986 36.018 28.8024 35.7033C28.6171 35.3884 28.7263 34.9853 29.0442 34.8033C30.2626 34.1048 31.4745 33.2472 32.6613 32.2503L28.7787 32.3074C28.4116 32.3129 28.1095 32.0224 28.1031 31.6575C28.098 31.295 28.3911 30.9957 28.7598 30.9891L34.1587 30.9111C35.5001 29.6308 36.8041 28.1712 38.0449 26.5626L33.733 26.6259C33.3645 26.6306 33.0622 26.3406 33.0572 25.9758C33.052 25.6129 33.3458 25.3122 33.7127 25.3067L39.0334 25.2299C39.9581 23.9345 40.8422 22.5558 41.6756 21.1012C41.8062 20.8732 42.0585 20.7438 42.3219 20.7709C42.5855 20.7972 42.8062 20.9749 42.889 21.2235C44.9581 27.5498 44.1343 32.706 40.4429 36.5514C33.9741 43.2868 21.0532 43.4982 17.8345 42.6447C17.5948 42.5812 17.4103 42.3903 17.3562 42.1511C17.3021 41.9117 17.3887 41.6618 17.578 41.5037" fill="#2D6B2F"/>
<path d="M11.5541 10.9605C13.1241 16.0248 18.1212 18.3044 22.0989 18.2801C24.0782 18.2687 25.7697 17.5748 27.5606 16.8409C30.4441 15.6576 33.6703 14.3346 38.7244 15.6109C36.4216 11.3871 30.9459 4.32299 24.1566 2.70563C20.2713 1.77983 16.5301 2.80877 13.0047 5.76516C13.9497 5.80362 14.8803 5.86787 15.7939 5.95617L15.7991 5.95627C16.8154 6.0553 17.8114 6.18531 18.7797 6.34469L23.0732 3.7739C23.388 3.58636 23.7974 3.68603 23.9871 3.99709C24.1762 4.30771 24.078 4.7113 23.7654 4.90133C23.813 4.94348 23.855 4.99321 23.8896 5.05009C24.0793 5.36158 23.9803 5.76624 23.6661 5.9553L21.9343 6.99226C22.4213 7.11241 22.9005 7.24058 23.3702 7.37775L23.3792 7.38078C25.6049 8.03052 27.6342 8.86434 29.3975 9.86869C29.7176 10.0498 29.8272 10.4542 29.6437 10.7686C29.5861 10.8682 29.5062 10.9471 29.4138 11.0027C29.6437 11.2062 29.7061 11.5479 29.5463 11.8216C29.3632 12.1377 28.9557 12.2458 28.6377 12.0645C27.6844 11.522 26.6478 11.0325 25.5417 10.5965L26.683 12.4867C26.8648 12.7878 26.7742 13.1745 26.4831 13.3699L26.5855 13.5397C26.7739 13.8516 26.6707 14.2559 26.3546 14.4436C26.0397 14.6294 25.631 14.5277 25.4409 14.2153L22.673 9.62848C21.1186 9.18655 19.4601 8.8366 17.723 8.58264L19.2324 11.0828C19.4143 11.3853 19.3243 11.7716 19.0327 11.9662L19.1352 12.1356C19.3234 12.4491 19.2207 12.8531 18.9038 13.0397C18.5888 13.2256 18.1786 13.1242 17.9905 12.8127L15.2629 8.29228C13.6667 8.14764 12.0177 8.07949 10.3278 8.09282C10.1494 8.09434 9.9836 8.02467 9.86084 7.90679C9.94188 9.09153 10.1594 10.7475 10.7452 11.1747C10.9946 11.356 11.4602 10.658 11.5541 10.9605" fill="#4BBC38"/>
<path d="M40.3337 17.4858C34.5463 15.4041 31.2547 16.7525 28.0702 18.0588C26.2408 18.81 24.3474 19.5846 22.1081 19.5984C18.6536 19.6205 14.5135 18.0809 12.0011 14.7282C11.2723 13.7561 10.6802 12.6322 10.2825 11.3476L10.2764 11.3251C10.1837 10.9828 10.379 10.6289 10.7228 10.5246C10.7683 10.5108 10.8125 10.5024 10.8558 10.4997C11.1635 10.4694 11.4609 10.6582 11.5547 10.9607C13.1248 16.025 18.1219 18.3046 22.0996 18.2803C24.0789 18.2689 25.7703 17.575 27.5612 16.8411C30.5805 15.6022 33.9756 14.2095 39.452 15.809C37.6792 11.9124 31.7721 3.44355 24.2546 1.65294C19.9512 0.62736 15.8245 1.99932 11.9723 5.73275C13.274 5.75962 14.5498 5.83578 15.7946 5.95637L15.7997 5.95648C16.8161 6.0555 17.8121 6.18552 18.7804 6.34489L23.0739 3.77411C23.3886 3.58656 23.7981 3.68623 23.9877 3.99729C24.1773 4.30878 24.0782 4.71366 23.7639 4.90272L20.736 6.71521C21.6418 6.9085 22.5208 7.1293 23.3709 7.37795L23.3799 7.38098C25.6055 8.03072 27.6348 8.86454 29.3982 9.86889C29.7182 10.05 29.8279 10.4544 29.6443 10.7688C29.461 11.0852 29.0537 11.1931 28.7357 11.0116C27.5148 10.317 26.1583 9.70735 24.6922 9.18892L26.6836 12.4869C26.8718 12.7988 26.7686 13.203 26.4526 13.3908C26.1376 13.5766 25.7292 13.475 25.5388 13.1623L22.7712 8.57569C20.98 8.06637 19.0502 7.67915 17.0218 7.42032L19.2331 11.083C19.4213 11.3964 19.3187 11.8004 19.0019 11.987C18.6868 12.1728 18.2767 12.0715 18.0885 11.7599L15.3608 7.2396C13.7646 7.09485 12.1158 7.02691 10.4257 7.04013C10.1609 7.04208 9.92151 6.89062 9.81354 6.6514C9.7048 6.41239 9.75002 6.13427 9.92622 5.93903C14.4292 1.00321 19.3545 -0.868977 24.5663 0.37102C33.6966 2.54592 40.342 13.5111 41.2044 16.6954C41.2685 16.9326 41.1937 17.186 41.0113 17.3523C40.8289 17.5182 40.5667 17.5689 40.3337 17.4858" fill="#2D6B2F"/>
</svg>
